HIERARCHY
ROOT Hips
{
    OFFSET 0.000000 0.000000 0.000000
    CHANNELS 6 Xposition Yposition Zposition Zrotation Xrotation Yrotation
    JOINT Spine
    {
        OFFSET -0.000000 0.083210 0.000000
        CHANNELS 3 Zrotation Xrotation Yrotation
        JOINT Spine1
        {
            OFFSET -0.000000 0.256334 0.000000
            CHANNELS 3 Zrotation Xrotation Yrotation
            JOINT Neck
            {
                OFFSET -0.000000 0.275576 0.002912
                CHANNELS 3 Zrotation Xrotation Yrotation
                JOINT Head
                {
                    OFFSET -0.000000 0.157287 0.020295
                    CHANNELS 3 Zrotation Xrotation Yrotation
                    End Site
                    {
                        OFFSET -0.000000 0.202951 0.000000
                    }
                }
            }
            JOINT LeftShoulder
            {
                OFFSET 0.041044 0.235234 -0.000041
                CHANNELS 3 Zrotation Xrotation Yrotation
                JOINT LeftArm
                {
                    OFFSET 0.117964 0.000000 0.000000
                    CHANNELS 3 Zrotation Xrotation Yrotation
                    JOINT LeftForeArm
                    {
                        OFFSET 0.291248 0.000000 0.000000
                        CHANNELS 3 Zrotation Xrotation Yrotation
                        JOINT LeftHand
                        {
                            OFFSET 0.245673 0.000000 0.000000
                            CHANNELS 3 Zrotation Xrotation Yrotation
                            End Site
                            {
                                OFFSET 0.152213 0.000000 0.000000
                            }
                        }
                    }
                }
            }
            JOINT RightShoulder
            {
                OFFSET -0.040052 0.235234 -0.000041
                CHANNELS 3 Zrotation Xrotation Yrotation
                JOINT RightArm
                {
                    OFFSET -0.117964 0.000000 0.000000
                    CHANNELS 3 Zrotation Xrotation Yrotation
                    JOINT RightForeArm
                    {
                        OFFSET -0.291248 0.000000 0.000000
                        CHANNELS 3 Zrotation Xrotation Yrotation
                        JOINT RightHand
                        {
                            OFFSET -0.245673 0.000000 0.000000
                            CHANNELS 3 Zrotation Xrotation Yrotation
                            End Site
                            {
                                OFFSET -0.152213 0.000000 0.000000
                            }
                        }
                    }
                }
            }
        }
    }
    JOINT LeftUpLeg
    {
        OFFSET 0.101475 0.000000 0.000000
        CHANNELS 3 Zrotation Xrotation Yrotation
        JOINT LeftLeg
        {
            OFFSET -0.000000 -0.446535 0.000000
            CHANNELS 3 Zrotation Xrotation Yrotation
            JOINT LeftFoot
            {
                OFFSET -0.000000 -0.400037 0.000000
                CHANNELS 3 Zrotation Xrotation Yrotation
                JOINT LeftToeBase
                {
                    OFFSET -0.000000 -0.065959 0.152213
                    CHANNELS 3 Zrotation Xrotation Yrotation
                    End Site
                    {
                        OFFSET -0.000000 0.000000 0.040590
                    }
                }
            }
        }
    }
    JOINT RightUpLeg
    {
        OFFSET -0.101475 0.000000 0.000000
        CHANNELS 3 Zrotation Xrotation Yrotation
        JOINT RightLeg
        {
            OFFSET -0.000000 -0.446535 0.000000
            CHANNELS 3 Zrotation Xrotation Yrotation
            JOINT RightFoot
            {
                OFFSET -0.000000 -0.400037 0.000000
                CHANNELS 3 Zrotation Xrotation Yrotation
                JOINT RightToeBase
                {
                    OFFSET -0.000000 -0.065959 0.152213
                    CHANNELS 3 Zrotation Xrotation Yrotation
                    End Site
                    {
                        OFFSET -0.000000 0.000000 0.040590
                    }
                }
            }
        }
    }
}
MOTION
Frames:    9
Frame Time:    0.008333
0.684562    0.920019    -0.683945    11.069753    7.224976    -131.533035    -5.743308    12.891483    -17.737587    5.452489    13.130847    -6.744467    5.283885    -3.006146    34.152798    -19.987263    3.455519    38.526096    20.279905    -32.690876    -38.447639    -16.674036    6.648242    -96.372414    27.128611    3.639175    -42.516605    16.886982    9.762712    -30.369448    -2.425764    -5.829843    2.271194    56.643227    13.636556    14.037319    -124.769569    -39.252392    6.611280    -44.632267    -23.763350    -13.474411    -5.692370    -12.344895    3.940849    -24.559198    47.258896    33.727486    -8.789837    0.349337    -0.045176    -0.031026    -8.174269    2.140229    20.308556    -40.057503    27.469036    7.453266    34.838074    6.996098    28.231802    15.686803    -6.819196    0.257779    -5.120246    3.668361    
0.680291    0.912996    -0.676481    10.627591    7.079190    -130.240356    -5.666741    12.813337    -17.997988    5.050975    13.309170    -6.788313    5.475500    -2.947026    33.731678    -19.829861    3.417503    38.097542    20.006639    -32.472881    -39.144573    -16.753365    6.856377    -96.614563    26.668989    3.830425    -41.691189    16.593519    9.616437    -30.397293    -2.433371    -5.881348    1.842695    56.730309    13.571677    13.609995    -123.796112    -39.911694    7.005227    -44.776943    -24.020813    -13.629817    -4.776594    -12.057997    5.238921    -26.976448    51.318806    36.298080    -7.335232    -0.580562    0.583253    -0.036365    -8.097960    2.397267    18.704588    -39.654514    26.621286    6.878916    34.173138    7.712167    27.147982    14.319243    -7.536541    0.383101    -5.432949    5.246225    
0.676018    0.905535    -0.669217    10.245714    6.924787    -128.844727    -5.541059    12.649734    -18.129015    4.577432    13.511600    -6.777149    5.990177    -2.992790    33.213787    -19.832657    3.643756    37.667721    19.944487    -32.199951    -39.900345    -17.042164    7.026470    -97.006721    26.091656    4.144643    -40.762260    16.542109    9.468113    -30.386610    -2.289775    -5.985566    1.316821    56.743858    14.045433    13.090513    -123.310120    -39.746342    6.602014    -44.527702    -24.586414    -13.852849    -3.663363    -11.657392    6.542883    -29.410172    55.295300    38.851219    -6.649904    -1.501272    1.459108    -0.037537    -7.930813    2.255575    16.950586    -39.360546    25.994795    7.296358    34.703991    7.073076    23.878578    9.643036    -6.766045    0.409700    -4.007349    6.758964    
0.671763    0.897656    -0.661676    9.927901    6.638062    -127.360573    -5.497767    12.406303    -18.296850    4.363866    13.534873    -6.803102    6.097834    -2.828359    32.707577    -19.827614    3.718644    37.191078    19.610855    -31.815289    -40.721436    -17.211861    7.446994    -97.242798    25.718784    4.220503    -39.954056    16.465202    9.223005    -30.309345    -2.396178    -5.942409    0.832219    56.933624    14.302642    12.575694    -122.548416    -40.018925    6.636401    -44.404419    -25.017141    -13.923309    -2.541021    -11.269910    7.873443    -31.512753    59.117695    42.502895    -6.135429    -1.992664    0.896628    -0.040725    -7.789871    2.277273    15.011830    -39.454197    25.012514    8.564491    36.107376    4.857241    17.740509    5.093007    -3.415770    0.362388    -4.819976    5.354567    
0.667978    0.889617    -0.654147    9.679028    6.346217    -125.920692    -5.507555    12.167520    -18.439564    4.341516    13.454258    -6.841246    5.864213    -2.518250    32.262337    -19.819555    3.497323    36.695831    19.185268    -31.273605    -41.317535    -17.219229    7.978771    -97.595467    25.408234    4.237122    -39.103939    16.442753    8.929780    -30.196327    -2.490278    -5.634120    0.477323    57.020416    14.515983    12.305110    -121.845306    -40.377960    6.753228    -44.226017    -25.450947    -13.872055    -1.169360    -10.918990    9.201349    -33.960800    62.945564    45.108715    -5.625888    -2.733718    1.588296    -0.053410    -7.464380    2.574126    13.106894    -39.716778    23.772396    9.882917    37.048668    3.439121    12.516659    1.417622    -2.010691    0.197945    -4.398018    3.094515    
0.664777    0.881535    -0.646554    9.490313    6.039443    -124.595024    -5.520164    11.978552    -18.543240    4.260334    13.217299    -6.854540    5.692686    -2.300442    31.890135    -19.678535    3.449524    36.285679    19.128035    -30.604570    -41.612156    -17.435387    8.496387    -97.969551    24.983252    4.230597    -38.351215    16.758671    8.518044    -30.037066    -2.412601    -5.387631    0.438741    57.126053    14.574708    11.739898    -121.008804    -40.816021    7.100317    -44.012177    -25.590761    -13.964152    0.386538    -10.627266    10.520758    -36.430687    66.573692    47.607487    -4.838033    -3.435561    2.435172    -0.057659    -7.139213    2.442338    11.123940    -40.305820    21.855354    10.591345    38.141617    4.916689    12.742467    -2.767858    -5.701690    0.145327    -0.161067    5.374610    
0.662242    0.873505    -0.638852    9.364693    5.776869    -123.450775    -5.606535    11.812957    -18.557495    4.312775    13.038022    -6.858547    5.381641    -2.264459    31.608088    -19.408907    3.370293    35.917889    19.175800    -30.130177    -41.686523    -17.705984    9.197412    -98.236603    24.673109    4.145868    -37.617214    16.834562    8.117179    -30.068081    -2.396237    -5.136388    0.557680    57.391544    14.614015    11.253701    -120.148094    -41.302246    7.522667    -43.375145    -25.820770    -13.851049    2.176374    -10.359932    11.862594    -39.073578    70.004730    49.790871    -3.692467    -4.103357    3.519511    -0.069659    -6.840221    2.655082    9.348166    -41.208027    18.792770    10.699651    39.781960    7.542442    10.685332    -5.202922    -8.006385    0.052049    1.852576    5.503170    
0.660628    0.865881    -0.631089    9.435057    5.678989    -122.599472    -5.430029    11.666788    -18.593037    4.249197    12.711288    -6.842232    4.797309    -1.994980    31.519836    -19.122971    2.764776    35.635658    19.282137    -29.512260    -41.389256    -17.669809    10.024888    -98.479202    24.385765    3.843573    -37.210621    16.800718    7.808193    -28.909737    -2.340124    -4.905625    1.033070    57.855923    14.331255    10.693387    -118.882034    -42.514515    8.681365    -43.293999    -25.800507    -13.837683    4.388906    -10.156199    13.446626    -41.575756    73.287277    52.077930    -2.472113    -4.808860    4.256873    -0.081209    -6.464398    2.749461    8.134057    -42.347439    14.473744    9.289827    41.933994    10.352262    8.505628    -6.350502    -8.230956    0.004107    2.840764    5.004240    
0.659625    0.858976    -0.623299    9.648250    5.813527    -122.008385    -5.006835    11.517759    -18.512499    4.023519    12.455908    -6.764596    4.425333    -2.101838    31.465754    -18.621849    2.610260    35.442146    19.486801    -28.954565    -40.984848    -17.793951    10.893082    -98.570313    23.889261    3.613215    -36.845028    16.548199    7.442295    -28.541042    -2.056083    -4.543761    1.697910    58.240246    14.212339    10.419804    -117.677841    -43.128841    9.598232    -42.951614    -25.553802    -13.737176    7.054340    -9.935875    15.109539    -44.206181    76.320152    53.924374    -1.214167    -5.504771    5.397098    -0.094415    -6.418442    3.153380    7.465368    -43.595928    10.574029    7.158625    43.982258    11.466715    7.813425    -6.481901    -6.311389    -0.041372    3.849281    5.170757    
